<svg width="312" height="96" viewBox="0 0 312 96" fill="none" xmlns="http://www.w3.org/2000/svg">
<rect width="312" height="95.7915" fill="#096EFD"/>
<path d="M32.313 72H22.252L22.3154 64.5732H32.313C34.8097 64.5732 36.915 64.0125 38.6289 62.8911C40.3428 61.7485 41.6335 60.0876 42.501 57.9082C43.3896 55.7288 43.834 53.0946 43.834 50.0054V47.752C43.834 45.3822 43.5801 43.298 43.0723 41.4995C42.5856 39.701 41.8556 38.1882 40.8823 36.9609C39.909 35.7337 38.7135 34.8133 37.2959 34.1997C35.8783 33.5649 34.249 33.2476 32.4082 33.2476H22.0615V25.7891H32.4082C35.4974 25.7891 38.3221 26.318 40.8823 27.376C43.4637 28.4128 45.696 29.9045 47.5791 31.8511C49.4622 33.7977 50.9116 36.1252 51.9272 38.8335C52.964 41.5207 53.4824 44.5146 53.4824 47.8154V50.0054C53.4824 53.285 52.964 56.279 51.9272 58.9873C50.9116 61.6956 49.4622 64.0231 47.5791 65.9697C45.7171 67.8952 43.4849 69.3869 40.8823 70.4448C38.3009 71.4816 35.4445 72 32.313 72ZM27.6475 25.7891V72H18.126V25.7891H27.6475ZM60.4014 25.7891H77.6353C81.1688 25.7891 84.2051 26.318 86.7441 27.376C89.3044 28.4339 91.2721 29.9997 92.6475 32.0732C94.0228 34.1468 94.7104 36.6965 94.7104 39.7222C94.7104 42.1978 94.2873 44.3242 93.4409 46.1016C92.6157 47.8577 91.4414 49.3283 89.918 50.5132C88.4157 51.6769 86.6489 52.6079 84.6177 53.3062L81.6025 54.8931H66.6221L66.5586 47.4663H77.6987C79.3703 47.4663 80.7562 47.1701 81.8564 46.5776C82.9567 45.9852 83.7819 45.16 84.332 44.1021C84.9033 43.0441 85.189 41.8169 85.189 40.4204C85.189 38.9393 84.9139 37.6592 84.3638 36.5801C83.8136 35.501 82.9779 34.6758 81.8564 34.1045C80.735 33.5332 79.328 33.2476 77.6353 33.2476H69.9229V72H60.4014V25.7891ZM86.2363 72L75.6992 51.4019L85.7603 51.3384L96.4243 71.5557V72H86.2363ZM127.56 25.7891H137.049V56.3213C137.049 59.876 136.288 62.87 134.764 65.3032C133.262 67.7365 131.178 69.5667 128.512 70.7939C125.867 72.0212 122.82 72.6348 119.371 72.6348C115.922 72.6348 112.854 72.0212 110.167 70.7939C107.501 69.5667 105.406 67.7365 103.883 65.3032C102.381 62.87 101.629 59.876 101.629 56.3213V25.7891H111.151V56.3213C111.151 58.3949 111.479 60.0876 112.135 61.3994C112.791 62.7113 113.732 63.674 114.959 64.2876C116.208 64.9012 117.678 65.208 119.371 65.208C121.106 65.208 122.577 64.9012 123.783 64.2876C125.01 63.674 125.941 62.7113 126.576 61.3994C127.232 60.0876 127.56 58.3949 127.56 56.3213V25.7891ZM162.884 55.5278H151.109V48.1011H162.884C164.704 48.1011 166.185 47.8049 167.328 47.2124C168.47 46.5988 169.306 45.7524 169.835 44.6733C170.364 43.5942 170.628 42.3776 170.628 41.0234C170.628 39.6481 170.364 38.368 169.835 37.1831C169.306 35.9982 168.47 35.0461 167.328 34.3267C166.185 33.6073 164.704 33.2476 162.884 33.2476H154.41V72H144.889V25.7891H162.884C166.502 25.7891 169.602 26.445 172.184 27.7568C174.786 29.0475 176.775 30.8354 178.15 33.1206C179.526 35.4058 180.213 38.0189 180.213 40.96C180.213 43.9434 179.526 46.5247 178.15 48.7041C176.775 50.8835 174.786 52.5656 172.184 53.7505C169.602 54.9354 166.502 55.5278 162.884 55.5278ZM200.304 33.6919L187.735 72H177.611L194.781 25.7891H201.224L200.304 33.6919ZM210.746 72L198.146 33.6919L197.13 25.7891H203.636L220.902 72H210.746ZM210.174 54.7979V62.2563H185.768V54.7979H210.174ZM254.894 64.5732V72H231.629V64.5732H254.894ZM234.708 25.7891V72H225.187V25.7891H234.708Z" fill="white"/>
<path d="M268.192 25.7891L276.888 41.9121L285.584 25.7891H296.471L283.045 48.7041L296.82 72H285.838L276.888 55.5596L267.938 72H256.893L270.699 48.7041L257.242 25.7891H268.192Z" fill="black"/>
</svg>
