<svg version="1.1" id="Layer_1" xmlns="http://www.w3.org/2000/svg" xmlns:xlink="http://www.w3.org/1999/xlink" x="0px" y="0px"
	 viewBox="0 0 516 88.2" style="enable-background:new 0 0 516 88.2;" xml:space="preserve">
<style type="text/css">
	.st0{fill:#1CAAE9;}
	.st1{fill:#0F8FDA;}
</style>
<g>
	<path d="M35.6,2.5H2.4C1.1,2.5,0,3.5,0,4.8v79.3c0,1.3,1.1,2.4,2.4,2.4h33.2c18.7,0,33.9-15.2,33.9-33.9V36.3
		C69.4,17.6,54.3,2.5,35.6,2.5z M49.2,53.2c0,9.1-7.3,16.4-16.4,16.4h-13V19.3h13c9.1,0,16.4,7.3,16.4,16.4V53.2z"/>
	<path d="M128.3,54.6c10.4-3.1,14.9-10.2,14.9-21.1v-7c0-13.2-10.7-23.9-23.9-23.9H81.2c-0.9,0-1.7,0.8-1.7,1.7v80.6
		c0,0.9,0.8,1.7,1.7,1.7h16.6c0.9,0,1.7-0.8,1.7-1.7V57.2h9.2l16.6,28.3c0.4,0.6,1,1,1.7,1h17.6c1.6,0,2.5-1.7,1.7-3.1L128.3,54.6z
		 M124.8,31.6c0,5.4-4.4,9.8-9.8,9.8H99.4V19.3H115c5.4,0,9.8,4.4,9.8,9.8V31.6z"/>
	<path d="M297.8,33.4v-7c0-13.2-10.7-23.9-23.9-23.9h-38.1c-0.9,0-1.7,0.8-1.7,1.7v80.6c0,0.9,0.8,1.7,1.7,1.7h16.6
		c0.9,0,1.7-0.8,1.7-1.7V57.9h9.2c10.6,0,15.4,0.2,18.8-1C292.3,53,297.8,44.4,297.8,33.4z M279.4,31.6c0,5.4-4.4,9.8-9.8,9.8H254
		V19.3h15.6c5.4,0,9.8,4.4,9.8,9.8V31.6z"/>
	<path d="M201.4,59.8c0,6.6-5.3,11.9-11.9,11.9h-3.6c-6.6,0-11.9-5.3-11.9-11.9V2.5h-19.3v58.1c0,15.3,12.4,27.6,27.6,27.6h11.4
		c15.3,0,27.6-12.4,27.6-27.6V2.5h-19.9V59.8z"/>
	<path d="M341.4,2.5h-20.8l-29.6,82.4c-0.3,0.8,0.3,1.6,1.1,1.6h18.7c0.5,0,0.9-0.3,1-0.7l4.4-15.2h28.7l5.1,15.3
		c0.1,0.4,0.5,0.7,1,0.7h18.5c0.8,0,1.4-0.8,1.1-1.6L341.4,2.5z M321.4,54.9l9.4-26l9.3,26H321.4z"/>
	<path d="M428.4,70h-31.5V4.2c0-0.9-0.8-1.7-1.7-1.7h-16.5c-0.9,0-1.7,0.8-1.7,1.7v80.4c0,1.1,0.9,1.9,1.9,1.9h49.5
		c0.9,0,1.7-0.8,1.7-1.7V71.7C430.1,70.7,429.3,70,428.4,70z"/>
</g>
<path class="st0" d="M438.5,0h22.6c0.6,0,1.1,0.3,1.4,0.8L514.4,84c0.7,1.1-0.1,2.4-1.3,2.4H491c-0.6,0-1.1-0.3-1.4-0.8L437.2,2.4
	C436.5,1.4,437.3,0,438.5,0z"/>
<path class="st1" d="M514.4,0h-22.6c-0.6,0-1.1,0.3-1.4,0.8L438.5,84c-0.7,1.1,0.1,2.4,1.3,2.4H462c0.6,0,1.1-0.3,1.4-0.8l52.4-83.2
	C516.4,1.4,515.7,0,514.4,0z"/>
</svg>
